<?xml version="1.0" standalone="no"?>
<!DOCTYPE svg PUBLIC "-//W3C//DTD SVG 20010904//EN"
 "http://www.w3.org/TR/2001/REC-SVG-20010904/DTD/svg10.dtd">
<svg version="1.0" xmlns="http://www.w3.org/2000/svg"
 width="497.000000pt" height="497.000000pt" viewBox="0 0 497.000000 497.000000"
 preserveAspectRatio="xMidYMid meet">
<metadata>
Created by potrace 1.14, written by Peter Selinger 2001-2017
</metadata>
<g transform="translate(0.000000,497.000000) scale(0.100000,-0.100000)"
fill="#000000" stroke="none">
<path d="M1230 3994 c-52 -6 -108 -14 -125 -18 -16 -3 -39 -8 -50 -10 -197
-40 -447 -151 -635 -284 -223 -157 -405 -421 -411 -597 -7 -170 143 -320 349
-351 21 -3 46 -7 57 -9 18 -2 21 3 23 47 7 159 109 389 246 557 49 60 166 177
226 226 308 252 673 307 922 138 110 -74 186 -185 208 -303 43 -228 -69 -548
-288 -824 -118 -149 -335 -362 -507 -498 -129 -103 -387 -278 -408 -278 -7 0
36 103 119 288 13 29 24 55 24 57 0 3 23 53 51 112 28 60 65 140 82 178 17 39
134 275 259 526 125 251 228 461 228 466 0 10 -115 98 -170 130 -106 62 -219
56 -283 -14 -18 -21 -352 -682 -446 -883 -117 -252 -258 -576 -342 -785 l-89
-220 -32 3 c-47 5 -82 26 -137 83 l-49 50 -10 -46 c-31 -146 8 -290 99 -368
60 -52 117 -69 235 -72 362 -10 921 224 1323 553 278 228 506 502 631 758 48
99 103 248 114 309 3 17 8 41 11 55 7 35 7 187 0 235 -45 297 -232 559 -490
683 -197 96 -485 137 -735 106z"/>
<path d="M3692 3528 c-22 -11 -71 -105 -173 -330 -48 -107 -119 -214 -198
-297 -23 -24 -44 -42 -46 -39 -10 10 25 90 129 294 58 114 106 211 106 214 0
17 -119 122 -155 135 -57 22 -86 9 -121 -55 -30 -55 -30 -55 -62 -4 -44 67
-244 99 -336 54 -124 -63 -293 -301 -340 -480 -8 -30 -13 -89 -12 -130 1 -62
6 -84 28 -121 31 -53 87 -106 152 -144 79 -46 127 -24 236 111 l58 72 5 -39
c10 -78 118 -174 181 -163 39 6 89 39 143 94 37 36 44 40 48 24 22 -71 92
-117 196 -129 l56 -7 22 54 c43 101 147 242 272 370 66 67 118 116 115 108 -2
-8 -26 -64 -51 -125 -61 -143 -75 -190 -75 -248 0 -121 125 -231 265 -231 73
-1 138 22 225 80 70 47 95 69 295 263 147 143 196 180 292 217 22 9 22 9 4 50
-40 88 -140 152 -222 141 -79 -10 -149 -83 -299 -307 -131 -197 -229 -310
-267 -310 -13 0 -14 8 -9 50 7 53 61 216 78 238 6 6 8 12 4 12 -3 0 39 90 95
200 111 222 110 208 37 276 -63 60 -88 74 -132 74 -44 0 -61 -15 -276 -250
-52 -57 -121 -131 -152 -164 -57 -61 -58 -61 -39 -21 10 22 29 63 41 90 12 28
46 98 75 156 l54 107 -32 31 c-66 69 -164 104 -215 79z m-579 -195 c0 -74 -22
-164 -50 -208 -52 -81 -208 -278 -268 -341 -69 -70 -105 -83 -105 -38 0 43 58
204 107 294 107 201 270 387 307 350 5 -5 9 -30 9 -57z"/>
<path d="M3285 2544 c-45 -59 -95 -163 -95 -198 0 -37 24 -67 70 -86 37 -15
30 -21 115 97 53 73 63 109 41 151 -19 36 -62 72 -86 72 -10 0 -30 -16 -45
-36z"/>
<path d="M3647 2479 c-31 -8 -90 -50 -125 -89 -41 -45 -93 -136 -158 -275 -62
-134 -108 -203 -168 -255 -38 -33 -79 -60 -90 -60 -18 0 6 65 80 215 75 154
76 156 58 176 -27 30 -70 59 -95 64 -32 6 -63 -32 -122 -157 -91 -189 -99
-240 -49 -331 50 -93 95 -111 166 -68 31 19 49 38 125 131 l20 25 1 -23 c0
-12 9 -39 19 -60 68 -132 162 -129 294 10 55 59 67 68 67 50 0 -23 28 -82 53
-114 19 -24 76 -46 105 -42 58 10 125 62 204 161 l26 32 5 -27 c8 -41 47 -93
95 -126 36 -26 53 -31 113 -33 117 -3 177 32 369 217 61 59 124 110 152 123
26 12 47 24 48 27 1 16 -45 73 -72 91 -25 15 -44 19 -77 16 -52 -6 -87 -38
-165 -152 -125 -182 -195 -244 -278 -245 -29 0 -38 4 -44 23 -9 26 -7 52 7 88
9 22 18 27 57 31 132 13 272 130 272 229 0 28 -36 86 -61 100 -34 18 -125 19
-174 2 -61 -20 -143 -97 -206 -191 -88 -134 -234 -282 -276 -282 -22 0 -11 62
28 155 29 68 34 74 76 90 138 53 263 265 228 387 -27 95 -99 116 -189 54 -87
-60 -137 -141 -272 -440 -24 -53 -214 -246 -243 -246 -34 0 -28 37 33 186 14
34 26 45 59 58 165 63 286 301 217 425 -29 50 -61 65 -113 50z m57 -141 c-23
-66 -79 -159 -128 -213 l-46 -50 18 40 c45 100 145 265 162 265 5 0 2 -19 -6
-42z m377 -5 c-29 -75 -74 -151 -121 -205 -23 -27 -44 -47 -46 -45 -12 12 158
297 177 297 5 0 0 -21 -10 -47z m336 -222 c-23 -35 -88 -94 -127 -116 -24 -14
57 88 130 163 26 27 24 -6 -3 -47z"/>
<path d="M2844 2262 c-32 -101 -113 -252 -192 -359 -56 -76 -122 -143 -122
-125 0 19 57 156 120 289 33 69 57 130 54 135 -17 26 -90 68 -120 68 -32 0
-36 -4 -68 -67 -18 -38 -44 -93 -56 -123 -61 -146 -216 -305 -310 -317 -54 -7
-67 18 -46 90 l15 52 49 1 c63 1 149 41 201 93 49 49 64 81 62 135 -3 100
-144 147 -259 86 -75 -39 -177 -155 -207 -235 -54 -140 52 -305 195 -305 67 0
110 25 178 103 17 21 32 34 33 30 6 -62 29 -97 86 -124 52 -25 106 -23 168 7
34 16 192 163 235 219 55 72 118 200 125 256 4 30 -20 61 -66 85 -46 24 -69
25 -75 6z m-520 -133 c-19 -38 -88 -106 -128 -126 -27 -14 -24 -9 24 48 73 87
104 117 112 112 5 -2 1 -18 -8 -34z"/>
<path d="M2437 1583 c-1 0 -96 -4 -212 -7 -274 -8 -437 -18 -535 -32 -150 -22
-178 -27 -255 -49 -130 -37 -252 -111 -284 -173 -35 -67 16 -263 85 -323 34
-29 63 -30 89 -1 14 15 25 30 25 33 0 13 79 58 146 82 38 14 112 34 164 45
120 26 138 29 330 57 221 32 526 56 925 71 373 15 1326 7 1355 -11 8 -5 78 31
95 48 6 7 28 34 48 60 37 49 50 106 25 108 -7 0 -20 2 -29 4 -14 2 -58 6 -254
21 -33 2 -82 6 -110 9 -27 2 -90 7 -140 10 -49 3 -117 7 -150 10 -60 5 -207
13 -365 20 -219 11 -947 25 -953 18z"/>
</g>
</svg>
